<?xml version="1.0" encoding="UTF-8"?>
<svg width="9px" height="12px" viewBox="0 0 9 12" version="1.1" xmlns="http://www.w3.org/2000/svg" xmlns:xlink="http://www.w3.org/1999/xlink">
    <!-- Generator: Sketch 51.3 (57544) - http://www.bohemiancoding.com/sketch -->
    <title>Page 1</title>
    <desc>Created with Sketch.</desc>
    <defs></defs>
    <g id="Page-1" stroke="none" stroke-width="1" fill="none" fill-rule="evenodd">
        <g id="5-Approval-&gt;-Signed-Out" transform="translate(-294.000000, -97.000000)" fill="#FFA03D">
            <g id="Group-4" transform="translate(294.000000, 97.000000)">
                <g id="Group-2">
                    <path d="M7.78384297,5.04799724 L7.53929759,5.04799724 L7.53929759,2.875 C7.53929759,1.2902279 6.17641333,0 4.50036499,0 C2.82504664,0 1.4614324,1.28953729 1.4614324,2.875 L1.4614324,5.04799724 L1.21688701,5.04799724 C0.5452997,5.04799724 0,5.56336326 0,6.19924033 L0,10.8487569 C0,11.4848066 0.544569714,12 1.21688701,12 L7.78311299,12 C8.4547003,12 9,11.4848066 9,10.8487569 L9,6.19854972 C9,5.56336326 8.45543029,5.04799724 7.78384297,5.04799724 Z M2.4195393,2.875 C2.4195393,1.78919199 3.35264417,0.906422652 4.50036499,0.906422652 C5.64808581,0.906422652 6.58119069,1.78919199 6.58119069,2.875 L6.58119069,5.04799724 L2.4195393,5.04799724 L2.4195393,2.875 Z M4.50036499,9.78176796 C3.84173493,9.78176796 3.30702003,9.2765884 3.30702003,8.65279696 C3.30702003,8.02969613 3.84100495,7.52382597 4.50036499,7.52382597 C5.15899505,7.52382597 5.69370995,8.02900552 5.69370995,8.65279696 C5.69370995,9.2765884 5.15899505,9.78176796 4.50036499,9.78176796 Z" id="Page-1"></path>
                </g>
            </g>
        </g>
    </g>
</svg>